<svg xmlns="http://www.w3.org/2000/svg" viewBox="0 0 365.045 231.6746">
  <defs>
    <style>
      .cls-1 {
        fill: #fff;
      }

      .cls-2 {
        fill: #5c8fcc;
      }

      .cls-3 {
        fill: #75a3d1;
      }

      .cls-4 {
        fill: #e2e2e2;
      }

      .cls-5 {
        fill: #c4c4c4;
      }

      .cls-6 {
        fill: #8cb3d3;
      }

      .cls-7 {
        fill: #efefef;
      }

      .cls-8 {
        fill: #d6d6d6;
      }
    </style>
  </defs>
  <g id="Layer_2" data-name="Layer 2">
    <g id="Layer_1-2" data-name="Layer 1">
      <g>
        <path class="cls-1" d="M218.8164,168.9051c-1.4012,2.6883-2.9223,5.26-4.44,7.8314a115.5732,115.5732,0,0,1-92.11,54.7041c-.9332,0-1.8692.117-2.9222.117h-1.7522l-.117.117H114.318c-.117,0-.117-.117-.234-.117h-.468a25.3889,25.3889,0,0,1-2.9222-.4673,22.0211,22.0211,0,0,1-3.9724-1.0523,14.79,14.79,0,0,1-3.7413-1.52,19.1635,19.1635,0,0,1-3.39-1.87c-.351-.234-.585-.4673-.819-.5843a34.739,34.739,0,0,1-3.1534-2.689,31.745,31.745,0,0,1-2.6911-2.9222q-.6978-1.052-1.4012-2.1039a15.581,15.581,0,0,1-1.9862-3.6236,16.3958,16.3958,0,0,1-1.521-3.9738,15.8775,15.8775,0,0,1-.8191-4.0916,1.657,1.657,0,0,1-.234-.7013v-.2333a26.0471,26.0471,0,0,1-.1141-3.0392,28.9829,28.9829,0,0,1,28.9883-28.989h81.9366A55.3675,55.3675,0,0,0,218.8164,168.9051Z"/>
        <path class="cls-2" d="M308.0044,57.86a54.9935,54.9935,0,0,1-.351,6.1955v.1163H115.8391c-2.2231,0-4.4433.117-6.6635.234-2.2231.234-4.4433.4673-6.5465.8183A29.7347,29.7347,0,0,0,96.2,66.393,37.2773,37.2773,0,0,0,90.0042,68.03,74.5375,74.5375,0,0,0,81.94,70.9519a84.4866,84.4866,0,0,0-14.6112,8.0654A79.6979,79.6979,0,0,0,54.4722,89.6539a81.3749,81.3749,0,0,0-12.9759,16.5988,32.1446,32.1446,0,0,0-1.9862,3.3895c-1.2871,2.3379-2.4571,4.6758-3.5073,7.13,0,.117-.117.117-.117.234-.819,1.9869-1.6352,4.0908-2.3372,6.1954a38.6554,38.6554,0,0,0-1.4041,4.9092,24.9308,24.9308,0,0,0-1.05,3.9738q-.8775,4.0335-1.4041,8.0654a51.1839,51.1839,0,0,0-.468,6.0785,7.7113,7.7113,0,0,0-.117,1.6366,25.4,25.4,0,0,1-.117-3.0392A86.927,86.927,0,0,1,115.8391,57.86Z"/>
        <path class="cls-3" d="M82.0565,226.8825c-.117,0-.117-.117-.234-.234h.117Z"/>
        <path class="cls-4" d="M307.6534,64.1721a57.98,57.98,0,0,1-57.5115,51.6656H115.8391a57.8422,57.8422,0,0,0-57.8625,57.86c0,1.2863,0,2.4549.117,3.6235a.5314.5314,0,0,0,0,.585c.117,1.2856.234,2.4543.468,3.7406a53.2966,53.2966,0,0,0,1.8692,8.7667,63.9918,63.9918,0,0,0,4.0923,10.1693c.117,0,.117.1163.117.2333.819,1.52,1.7551,2.9222,2.6882,4.4418a37.4251,37.4251,0,0,0,3.1563,4.3249,38.2534,38.2534,0,0,0,3.5072,4.0915,20.3522,20.3522,0,0,0,2.8052,2.6883,26.0314,26.0314,0,0,0,2.8053,2.4549l.351.35c1.053.7013,1.9862,1.52,3.0392,2.2209a48.8814,48.8814,0,0,0,6.78,3.9746,20.52,20.52,0,0,0,3.27,1.52c.117.1163.234.2333.351.2333a23.5611,23.5611,0,0,0,3.0392,1.1693,23.8551,23.8551,0,0,0,4.0923,1.2856,55.7435,55.7435,0,0,0,6.6606,1.4026.7.7,0,0,1,.4681.117c-1.5182-.117-2.9223-.234-4.44-.4673-.117,0-.351-.117-.468-.117-.585-.117-1.17-.117-1.7522-.234a8.197,8.197,0,0,1-1.638-.351c-1.4012-.2333-2.8052-.4673-4.2064-.8176a77.0573,77.0573,0,0,1-18.9375-7.1308.1144.1144,0,0,1-.117-.1163l-.117-.117a8.8656,8.8656,0,0,1-2.1032-1.0523c-.117-.117-.351-.117-.468-.234-1.1672-.5843-2.22-1.2856-3.2732-1.87-.351-.234-.5851-.351-.9361-.5843a83.8148,83.8148,0,0,1-7.3626-5.26c-1.9862-1.6366-3.9753-3.2732-5.8445-5.0261l-.234-.234c-.117-.1171-.117-.1171-.234-.2333-1.4012-1.2864-2.6882-2.689-3.9724-4.0916a66.7356,66.7356,0,0,1-4.56-5.4934c-1.5182-1.8707-2.8052-3.7406-4.0923-5.6112v-.117a83.9173,83.9173,0,0,1-4.6744-8.2987,19.1917,19.1917,0,0,1-1.5182-3.1562,40.8057,40.8057,0,0,1-1.755-3.9739c-.468-1.2863-.9332-2.6889-1.4012-3.9745a5.693,5.693,0,0,1-.468-1.2856,69.5647,69.5647,0,0,1-2.6882-11.1047,46.8392,46.8392,0,0,1-.8191-5.8444,31.4525,31.4525,0,0,1-.351-4.6759,4.7865,4.7865,0,0,1-.117-1.2856v-.4673a7.7113,7.7113,0,0,1,.117-1.6366,51.1839,51.1839,0,0,1,.468-6.0785q.5265-4.0323,1.4041-8.0654a24.9308,24.9308,0,0,1,1.05-3.9738,38.6554,38.6554,0,0,1,1.4041-4.9092c.702-2.1046,1.5182-4.2085,2.3372-6.1954,0-.117.117-.117.117-.234,1.05-2.4543,2.22-4.7922,3.5073-7.13a32.1446,32.1446,0,0,1,1.9862-3.3895A81.3749,81.3749,0,0,1,54.4722,89.6539,79.6979,79.6979,0,0,1,67.3283,79.0173,84.4866,84.4866,0,0,1,81.94,70.9519,74.5375,74.5375,0,0,1,90.0042,68.03,37.2773,37.2773,0,0,1,96.2,66.393a56.9948,56.9948,0,0,1,6.4295-1.1686c2.1032-.351,4.3234-.5843,6.5465-.8183,2.22-.117,4.44-.234,6.6635-.234Z"/>
        <path class="cls-2" d="M253.5321,115.8377a50.9152,50.9152,0,0,1-.3481,5.9607,13.3435,13.3435,0,0,1-3.0421.234H115.8391a66.3418,66.3418,0,0,0-6.8975.351c-1.6352.2333-3.2732.4673-4.7914.8183a53.4318,53.4318,0,0,0-11.3408,3.6236c-1.5182.7013-3.0364,1.4026-4.44,2.1039a36.4044,36.4044,0,0,0-4.2093,2.4542,53.6806,53.6806,0,0,0-5.1424,3.8576,31.7173,31.7173,0,0,0-4.09,3.74,30.85,30.85,0,0,0-3.7412,4.0909,39.71,39.71,0,0,0-2.6882,3.5072c-.7021.9346-1.2871,1.9869-1.8721,2.9222a32.6551,32.6551,0,0,0-1.9862,3.39,38.5142,38.5142,0,0,0-1.8692,3.8575c-.585,1.4026-1.17,2.8052-1.638,4.3249A35.73,35.73,0,0,0,59.7317,166.1a41.4518,41.4518,0,0,0-1.0531,5.4935c-.234,1.4026-.351,2.9222-.468,4.3248v.585a1.9846,1.9846,0,0,0-.117.8176c-.117-1.1686-.117-2.3372-.117-3.6235a57.8422,57.8422,0,0,1,57.8625-57.86Z"/>
        <path class="cls-5" d="M253.5321,115.8377a50.9152,50.9152,0,0,1-.3481,5.9607v.234H115.8391a66.3418,66.3418,0,0,0-6.8975.351c-1.6352.2333-3.2732.4673-4.7914.8183a53.4318,53.4318,0,0,0-11.3408,3.6236c-1.5182.7013-3.0364,1.4026-4.44,2.1039a36.4044,36.4044,0,0,0-4.2093,2.4542,53.6806,53.6806,0,0,0-5.1424,3.8576c-1.4012,1.1686-2.8053,2.4549-4.09,3.74-1.287,1.2856-2.574,2.6882-3.7412,4.0909a39.71,39.71,0,0,0-2.6882,3.5072c-.7021.9346-1.2871,1.9869-1.8721,2.9222a32.6551,32.6551,0,0,0-1.9862,3.39,38.5142,38.5142,0,0,0-1.8692,3.8575c-.585,1.4026-1.17,2.8052-1.638,4.3249A35.73,35.73,0,0,0,59.7317,166.1a41.4518,41.4518,0,0,0-1.0531,5.4935c-.234,1.4026-.351,2.9222-.468,4.3248v.585a1.9846,1.9846,0,0,0-.117.8176c-.117-1.1686-.117-2.3372-.117-3.6235a57.8422,57.8422,0,0,1,57.8625-57.86Z"/>
        <path class="cls-6" d="M82.0565,226.8825c-.117,0-.117-.117-.234-.234h.117Z"/>
        <path class="cls-7" d="M253.184,122.0324a57.6445,57.6445,0,0,1-34.3676,46.8727,55.3675,55.3675,0,0,1-21.0407,4.7922H115.8391a28.9829,28.9829,0,0,0-28.9883,28.989,26.0471,26.0471,0,0,0,.1141,3.0392v.2333a1.657,1.657,0,0,0,.234.7013,15.8775,15.8775,0,0,0,.8191,4.0916,16.3958,16.3958,0,0,0,1.521,3.9738,15.581,15.581,0,0,0,1.9862,3.6236q.702,1.052,1.4012,2.1039a31.745,31.745,0,0,0,2.6911,2.9222,34.739,34.739,0,0,0,3.1534,2.689c.234.117.468.35.819.5843a19.1635,19.1635,0,0,0,3.39,1.87,14.79,14.79,0,0,0,3.7413,1.52,15.3133,15.3133,0,0,0,3.9724,1.0523,25.3889,25.3889,0,0,0,2.9222.4673h-.819c-1.7522-.117-3.5044-.2333-5.1424-.4673a.7.7,0,0,0-.4681-.117,55.7435,55.7435,0,0,1-6.6606-1.4026,23.8551,23.8551,0,0,1-4.0923-1.2856,23.5611,23.5611,0,0,1-3.0392-1.1693c-.117,0-.234-.117-.351-.2333a20.52,20.52,0,0,1-3.27-1.52,48.8814,48.8814,0,0,1-6.78-3.9746c-1.053-.7013-1.9862-1.52-3.0392-2.2209l-.351-.35a26.0314,26.0314,0,0,1-2.8053-2.4549,20.3522,20.3522,0,0,1-2.8052-2.6883,38.2534,38.2534,0,0,1-3.5072-4.0915,37.4251,37.4251,0,0,1-3.1563-4.3249c-.9331-1.52-1.8692-2.9222-2.6882-4.4418,0-.117,0-.2333-.117-.2333a63.9918,63.9918,0,0,1-4.0923-10.1693,53.2966,53.2966,0,0,1-1.8692-8.7667c-.234-1.2863-.351-2.455-.468-3.7406a.5314.5314,0,0,1,0-.585,1.9846,1.9846,0,0,1,.117-.8176v-.585c.117-1.4026.234-2.9222.468-4.3248A41.4518,41.4518,0,0,1,59.7317,166.1a35.73,35.73,0,0,1,1.4012-5.0261c.468-1.52,1.053-2.9223,1.638-4.3249a38.5142,38.5142,0,0,1,1.8692-3.8575,32.6551,32.6551,0,0,1,1.9862-3.39c.585-.9353,1.17-1.9876,1.8721-2.9222a39.71,39.71,0,0,1,2.6882-3.5072c1.1672-1.4027,2.4542-2.8053,3.7412-4.0909,1.2842-1.2856,2.6883-2.5719,4.09-3.74a53.6806,53.6806,0,0,1,5.1424-3.8576,36.4044,36.4044,0,0,1,4.2093-2.4542c1.404-.7013,2.9222-1.4026,4.44-2.1039a53.4318,53.4318,0,0,1,11.3408-3.6236c1.5182-.351,3.1562-.585,4.7914-.8183a66.3418,66.3418,0,0,1,6.8975-.351Z"/>
        <path class="cls-5" d="M218.8164,168.9051c-1.4012,2.6883-2.9223,5.26-4.44,7.8314a55.6648,55.6648,0,0,1-16.6,3.0393,12.6654,12.6654,0,0,1-2.1032.117H115.8391a29.1065,29.1065,0,0,0-28.8742,25.8327,26.0471,26.0471,0,0,1-.1141-3.0392,28.9829,28.9829,0,0,1,28.9883-28.989h81.9366A55.3675,55.3675,0,0,0,218.8164,168.9051Z"/>
        <path class="cls-2" d="M114.318,231.6746a6.6713,6.6713,0,0,1-1.521-.117h1.287C114.201,231.5576,114.201,231.6746,114.318,231.6746Z"/>
        <path class="cls-8" d="M365.045,0a54.9622,54.9622,0,0,1-.3511,6.1955,56.9414,56.9414,0,0,1-16.5973,34.7157A57.5259,57.5259,0,0,1,308.0044,57.86H115.8391A86.927,86.927,0,0,0,28.9883,144.826a25.4,25.4,0,0,0,.117,3.0392v.4673a4.7865,4.7865,0,0,0,.117,1.2856,31.4525,31.4525,0,0,0,.351,4.6759,46.8392,46.8392,0,0,0,.8191,5.8444,69.5647,69.5647,0,0,0,2.6882,11.1047,5.693,5.693,0,0,0,.468,1.2856c.468,1.2856.9332,2.6882,1.4012,3.9745a40.8057,40.8057,0,0,0,1.755,3.9739,19.1917,19.1917,0,0,0,1.5182,3.1562,58.2513,58.2513,0,0,0,4.6744,8.2987v.117c1.2871,1.8706,2.5741,3.74,4.0923,5.6112a66.7356,66.7356,0,0,0,4.56,5.4934c1.2842,1.4026,2.5712,2.8052,3.9724,4.0916.117.1162.117.1162.234.2333l.234.234c1.8692,1.7529,3.8583,3.3895,5.8445,5.0261a83.8148,83.8148,0,0,0,7.3626,5.26c.351.2333.5851.35.9361.5843,1.053.5843,2.106,1.2856,3.2732,1.87.117.117.351.117.468.234a8.8656,8.8656,0,0,0,2.1032,1.0523l.117.117a.1144.1144,0,0,0,.117.1163A77.0573,77.0573,0,0,0,95.15,229.1034c1.4012.35,2.8052.5843,4.2064.8176a8.197,8.197,0,0,0,1.638.351c.5822.117,1.1672.117,1.7522.234.117,0,.351.117.468.117a28.685,28.685,0,0,0,4.4405.4673c1.638.234,3.39.35,5.1424.4673a97.6966,97.6966,0,0,1-16.7144-1.52A113.3312,113.3312,0,0,1,81.94,226.6485h-.234a114.69,114.69,0,0,1-21.6228-9.234c-.117,0-.234-.117-.351-.117-.117-.117-.234-.234-.351-.234A115.8889,115.8889,0,0,1,.117,118.9932,28.4484,28.4484,0,0,1,0,115.8377,115.8844,115.8844,0,0,1,115.8391,0Z"/>
        <path class="cls-5" d="M308.0044,57.86a54.9935,54.9935,0,0,1-.351,6.1955H115.8391a63.5158,63.5158,0,0,0-6.6635.35,40.0929,40.0929,0,0,0-6.5465.8183A29.7347,29.7347,0,0,0,96.2,66.393,37.2773,37.2773,0,0,0,90.0042,68.03,74.5375,74.5375,0,0,0,81.94,70.9519a84.4866,84.4866,0,0,0-14.6112,8.0654A79.6979,79.6979,0,0,0,54.4722,89.6539a81.3749,81.3749,0,0,0-12.9759,16.5988,32.1446,32.1446,0,0,0-1.9862,3.3895c-1.2871,2.3379-2.4571,4.6758-3.5073,7.13,0,.117-.117.117-.117.234-.819,1.9869-1.6352,4.0908-2.3372,6.1954a38.6554,38.6554,0,0,0-1.4041,4.9092,24.9308,24.9308,0,0,0-1.05,3.9738q-.8775,4.0335-1.4041,8.0654a51.1839,51.1839,0,0,0-.468,6.0785,7.7113,7.7113,0,0,0-.117,1.6366,25.4,25.4,0,0,1-.117-3.0392A86.927,86.927,0,0,1,115.8391,57.86Z"/>
      </g>
    </g>
  </g>
</svg>
